<svg xmlns="http://www.w3.org/2000/svg" enable-background="new 0 0 24 24" viewBox="0 0 24 24"><path d="M23.961,11.954l-0.017-0.007l0.049,0.049C24.014,11.996,23.961,11.954,23.961,11.954z"/><polygon points="23.272 12.518 23.272 12.562 23.366 12.602"/><path d="M14.933,16.276v0.004C14.946,16.286,14.94,16.281,14.933,16.276z"/><polygon points="2.743 14.98 5.526 13.796 5.557 13.787 .534 12.738"/><path d="M6.886 12.313c.055 0 .11.003.164.008L7.044 12.32c.052-.007.111-.011.172-.011.061 0 .12.004.179.012L7.388 12.32l2.741-4.265C9.923 7.842 9.796 7.55 9.795 7.229 9.79 7.188 9.788 7.14 9.788 7.093s.003-.095.008-.141L9.795 6.958l-3.328-1.54L3.789 8.026l2.94 4.294C6.776 12.315 6.831 12.313 6.886 12.313zM16.159 8.413l.575-3.562-2.135-2.242-2.511 3.865v.053c.109.164.184.359.208.57l.001.006 3.505 1.487c.101-.078.22-.139.349-.176L16.159 8.413zM23.327 12.605l-5.933-2.537c-.166.22-.414.37-.697.407l-.005.001-.649 3.971c.186.189.303.448.304.733l3.641.765 3.338-3.321V12.605z"/><polygon points="20.293 8.276 17.739 9.324 24 11.988"/><path d="M5.818 13.085H5.82c.069-.128.149-.238.242-.336L6.06 12.75 3.286 8.601 0 11.796 5.818 13.085zM15.446 9.439c-.002-.023-.003-.048-.003-.074 0-.03.001-.058.004-.087v.004c.001-.003.001-.006.001-.009 0-.012-.004-.023-.011-.032l-3.276-1.395c-.218.33-.587.546-1.007.546-.014 0-.028 0-.041-.001h-.197l-2.71 4.191L15.446 9.439z"/><polygon points="3.339 15.494 4.574 16.72 5.976 14.541 5.882 14.446"/><path d="M16.21 15.913c-.119.152-.275.27-.454.342l-.007.003-.763 4.736 4.447-4.411c0 0-.01.02-.021.02v-.03L16.21 15.913zM16.974 8.507c.118.06.218.137.303.23l.001.001 2.354-1.049-2.197-2.178-.492 2.964L16.974 8.507z"/><polygon points="15.446 9.439 15.446 9.439 15.446 9.449"/><path d="M11.899 24l1.193-1.184L7.681 14.97c-.165.078-.36.124-.564.125-.002 0-.004 0-.006 0-.159 0-.313-.027-.455-.076l.01.003-1.548 2.253L11.899 24zM8.373 13.399c.034.052.068.114.099.178l.005.011 5.892 1.215c.17-.294.472-.495.822-.524h.004l.639-3.907-.135-.115L8.373 13.399zM11.951 0L7.033 4.829c0 0-.01.052 0 .063l3.245 1.383c.214-.177.489-.284.791-.284.016 0 .032 0 .048.001h-.002c.142.001.28.024.408.066l-.01-.003 2.532-3.96L11.951 0zM14.318 15.543l-.002-.007L8.352 14.31l-.084.136 5.411 7.837.324-.325.921-5.689c0 0 .006.004.01.007v-.028C14.628 16.121 14.4 15.861 14.318 15.543z"/></svg>